<svg width="28" height="25" viewBox="0 0 28 25" fill="none" xmlns="http://www.w3.org/2000/svg">
<path fill-rule="evenodd" clip-rule="evenodd" d="M0 12.5C0 12.0265 0.184354 11.5724 0.512506 11.2375C0.840658 10.9027 1.28573 10.7146 1.7498 10.7146H22.023L14.5094 3.05171C14.1808 2.71646 13.9962 2.26176 13.9962 1.78765C13.9962 1.31353 14.1808 0.858839 14.5094 0.52359C14.8379 0.188341 15.2836 0 15.7482 0C16.2129 0 16.6585 0.188341 16.9871 0.52359L27.4859 11.2359C27.6489 11.4018 27.7782 11.5988 27.8664 11.8157C27.9546 12.0326 28 12.2652 28 12.5C28 12.7348 27.9546 12.9674 27.8664 13.1843C27.7782 13.4012 27.6489 13.5982 27.4859 13.7641L16.9871 24.4764C16.6585 24.8117 16.2129 25 15.7482 25C15.2836 25 14.8379 24.8117 14.5094 24.4764C14.1808 24.1412 13.9962 23.6865 13.9962 23.2124C13.9962 22.7382 14.1808 22.2835 14.5094 21.9483L22.023 14.2854H1.7498C1.28573 14.2854 0.840658 14.0973 0.512506 13.7625C0.184354 13.4276 0 12.9735 0 12.5Z" fill="#2597F3"/>
</svg>
