<svg width="28" height="25" viewBox="0 0 28 25" fill="none" xmlns="http://www.w3.org/2000/svg">
<path fill-rule="evenodd" clip-rule="evenodd" d="M28 12.5C28 12.9735 27.8156 13.4276 27.4875 13.7625C27.1593 14.0973 26.7143 14.2854 26.2502 14.2854H5.97696L13.4906 21.9483C13.6533 22.1143 13.7824 22.3114 13.8704 22.5282C13.9585 22.7451 14.0038 22.9776 14.0038 23.2124C14.0038 23.4471 13.9585 23.6796 13.8704 23.8965C13.7824 24.1133 13.6533 24.3104 13.4906 24.4764C13.3279 24.6424 13.1348 24.7741 12.9222 24.8639C12.7097 24.9538 12.4818 25 12.2518 25C12.0217 25 11.7939 24.9538 11.5813 24.8639C11.3687 24.7741 11.1756 24.6424 11.0129 24.4764L0.514071 13.7641C0.351118 13.5982 0.221832 13.4012 0.133619 13.1843C0.0454061 12.9674 0 12.7348 0 12.5C0 12.2652 0.0454061 12.0326 0.133619 11.8157C0.221832 11.5988 0.351118 11.4018 0.514071 11.2359L11.0129 0.52359C11.3415 0.188341 11.7871 0 12.2518 0C12.7164 0 13.1621 0.188341 13.4906 0.52359C13.8192 0.858839 14.0038 1.31353 14.0038 1.78765C14.0038 2.26176 13.8192 2.71646 13.4906 3.05171L5.97696 10.7146H26.2502C26.7143 10.7146 27.1593 10.9027 27.4875 11.2375C27.8156 11.5724 28 12.0265 28 12.5Z" fill="#0D47A1"/>
</svg>
